<?xml version="1.0" encoding="UTF-8" standalone="no"?>
<svg
   version="1.1"
   viewBox="0 0 1509.9256 116.3261"
   width="1509.9257"
   height="116.3261"
   id="svg1"
   sodipodi:docname="brush.svg"
   inkscape:version="1.4 (e7c3feb100, 2024-10-09)"
   xmlns:inkscape="http://www.inkscape.org/namespaces/inkscape"
   xmlns:sodipodi="http://sodipodi.sourceforge.net/DTD/sodipodi-0.dtd"
   xmlns="http://www.w3.org/2000/svg"
   xmlns:svg="http://www.w3.org/2000/svg">
  <defs
     id="defs1" />
  <sodipodi:namedview
     id="namedview1"
     pagecolor="#ffffff"
     bordercolor="#000000"
     borderopacity="0.25"
     inkscape:showpageshadow="2"
     inkscape:pageopacity="0.0"
     inkscape:pagecheckerboard="0"
     inkscape:deskcolor="#d1d1d1"
     inkscape:zoom="0.22187282"
     inkscape:cx="-315.49606"
     inkscape:cy="-651.274"
     inkscape:window-width="1920"
     inkscape:window-height="1008"
     inkscape:window-x="0"
     inkscape:window-y="0"
     inkscape:window-maximized="1"
     inkscape:current-layer="svg1" />
  <path
     id="path4"
     d="m 415.37109,102.6836 c -1.66978,-0.0108 -3.34383,0.48821 -5.46679,0.82422 5.71203,2.92692 20.60669,2.68977 27.06054,-0.41797 -7.55175,-0.15654 -14.57342,-0.35767 -21.59375,-0.40625 z" />
  <path
     id="path3"
     d="m 45.005859,0 c -1.264261,0.96178 -2.315488,1.76223 -3.158203,2.40235 0.148364,0.26449 0.192741,0.43604 0.304688,0.5332 1.444529,1.26847 4.657181,1.11253 3.953125,4.08398 -0.717543,3.04163 -3.634855,2.1272 -5.757813,2.39844 -1.737211,0.224 -3.515811,0.0774 -5.259765,0.26367 -1.101943,0.11875 -2.16815,0.54776 -3.253907,0.83789 12.0809,3.26698 24.210484,4.86546 36.675782,4.97071 -1.235469,1.3184 -2.488284,2.1653 -3.861328,2.70508 -6.336504,2.48565 -12.724368,1.0099 -19.070313,0.0234 -1.818137,-0.28338 -3.591606,-1.55323 -5.365234,0.42774 0.480161,0.40078 0.821372,0.92308 1.242187,1 10.158908,1.87571 20.327745,3.70518 30.496094,5.53906 1.193658,0.2159 2.624923,0.0637 3.548828,0.67773 4.633012,3.08346 9.886855,3.49876 15.130859,3.55274 5.242654,0.0526 10.494421,-0.37678 15.734371,-0.73438 10.14273,-0.69091 20.27869,-1.47599 30.41602,-2.23437 5.40046,-0.40349 10.79532,-0.88332 16.20117,-1.20313 0.81736,-0.0472 1.67864,0.59876 2.51758,0.91993 -0.0216,0.34411 -0.0448,0.68909 -0.0664,1.0332 -1.45667,0.19162 -2.9213,0.59439 -4.36718,0.53906 -8.78182,-0.3414 -17.35111,1.45347 -25.99805,2.44531 -4.20141,0.48309 -7.87904,1.88913 -10.37695,5.67969 8.18701,0.48714 16.12899,0.96221 24.21484,1.44531 -0.17129,3.2049 -1.7934,4.13778 -3.8125,4.29297 -3.30448,0.25774 -6.63139,0.35466 -9.94531,0.32227 -2.96999,-0.027 -5.95455,-0.60199 -8.9043,-0.44141 -9.79339,0.53573 -19.581422,1.23498 -29.361328,1.97852 -13.793833,1.0512 -27.58354,2.1561 -41.365234,3.34765 -2.394061,0.20916 -5.317764,0.25561 -6.990234,1.61719 -4.328191,3.51932 -9.272389,3.801 -14.34375,4.12891 C 17.192948,53.00342 10.200114,53.3971 3.2148538,53.93552 2.1938276,54.01245 1.2219823,54.74822 0,55.28125 c 2.6044677,3.83913 5.7599216,5.42103 9.8183594,5.66797 5.4287846,0.33062 10.8578156,1.39319 16.2636716,1.2461 7.786427,-0.21321 15.301435,1.54744 22.957031,2.19921 3.787336,0.32117 7.567766,0.81155 11.328126,1.37696 0.845677,0.1282 1.59169,0.88917 2.384765,1.35742 -0.04721,0.43992 -0.09342,0.87723 -0.140625,1.31445 -13.984009,0.25639 -27.846946,2.12532 -41.880859,2.13477 2.898499,2.62465 6.217177,0.52734 9.291015,1.04687 3.277502,0.55326 6.606468,0.89734 9.925782,1.09571 3.20332,0.19297 6.549354,-0.73883 9.919922,1.44726 -4.046299,2.88913 -8.727779,0.83338 -13.207032,2.6875 4.34033,2.32507 9.571331,-1.1428 13.435547,3.72461 -4.932439,0.41967 -9.091753,0.77009 -13.25,1.125 0.0094,0.40617 0.02241,0.81317 0.0332,1.2207 7.017631,0.68012 14.03915,1.33019 21.052735,2.05079 7.330545,0.75433 14.635087,1.77304 21.980468,2.32226 11.593995,0.86633 17.829884,1.94791 20.318364,3.89649 -5.152294,0.53033 -10.438659,1.07738 -15.72852,1.59961 -0.334494,0.0351 -0.684617,-0.15001 -1.03125,-0.17969 -8.377187,-0.7206 -16.750229,-1.48803 -25.132812,-2.10742 -1.895017,-0.13899 -3.827685,0.22772 -5.740235,0.36132 0.0054,0.36165 0.01215,0.72309 0.01758,1.08203 1.103291,0.3576 2.182233,0.87429 3.3125,1.04297 4.162292,0.61939 8.330403,1.23943 12.515625,1.65235 21.640955,2.14965 43.295942,4.19009 64.935552,6.36133 14.13507,1.41825 28.22676,3.31427 42.38476,4.41406 16.77326,1.3076 33.59012,2.124 50.39844,2.89453 10.15082,0.46556 20.32654,0.47596 30.49219,0.62305 14.38459,0.21051 28.76789,0.48345 43.14843,0.47265 5.57985,-0.004 11.16296,-0.70976 16.74415,-1.0957 -0.61908,-1.1821 -1.23248,-1.46925 -1.85157,-1.49219 -11.57916,-0.40888 -23.15791,-0.77006 -34.73437,-1.18164 -1.74396,-0.0621 -3.52902,-0.11577 -5.21094,-0.52734 -1.91255,-0.46826 -2.87016,-1.79184 -2.20117,-4.42188 2.74204,-0.29688 5.48016,-0.83011 8.21679,-0.84765 11.75989,-0.0769 23.52331,0.0516 35.28321,0.006 26.31578,-0.0931 52.63344,-0.22824 78.94922,-0.38477 12.62041,-0.0742 25.23715,-0.25185 37.85351,-0.34766 18.96095,-0.14438 37.92381,-0.24307 56.88477,-0.38476 27.73468,-0.21051 55.47249,-0.26766 83.20312,-0.74805 8.39209,-0.14594 16.84679,0.85177 25.2168,-0.11133 3.23587,0.23412 6.47364,0.44972 9.70898,0.68946 2.0488,0.15384 4.46497,-0.12404 6.50977,2.13086 -4.3107,1.11463 -8.11206,2.09829 -11.91016,3.08203 0.051,0.40078 0.10245,0.80039 0.15235,1.20117 1.6886,0.18622 3.37566,0.49676 5.06836,0.5332 7.5261,0.16193 15.05666,0.44684 22.58007,0.31055 9.97817,-0.17947 19.95092,-0.7048 29.92774,-1.08399 5.78351,-0.21996 11.57419,-0.75763 17.34961,-0.5957 11.54678,0.31847 23.077,1.20842 34.62109,1.52149 14.01907,0.37514 28.0445,0.41569 42.07032,0.55468 1.22873,0.0121 2.46133,-0.32142 3.6914,-0.49414 -0.0216,-0.3549 -0.0454,-0.7076 -0.0684,-1.0625 -8.1452,-0.58431 -16.29305,-1.16196 -24.43554,-1.75976 -8.04674,-0.5897 -16.0837,-1.47766 -24.14258,-1.72461 -8.04404,-0.24829 -16.07553,-0.18087 -23.99414,-2.61524 1.42813,-0.59924 2.87439,-1.10748 4.32422,-1.46484 0.84175,0.003 1.68363,-2.2e-4 2.52539,0.004 4.8704,0.0243 9.73898,0.56691 14.60937,0.8125 0.83893,0.0418 1.69325,-0.2227 2.54297,-0.31446 1.32907,-0.14367 2.66017,-0.25319 3.99023,-0.39648 10.48101,0.30428 20.96337,0.55917 31.44141,0.98242 10.4961,0.42373 20.97926,1.25728 31.47266,1.81055 0.91716,0.0472 2.55895,-0.43935 2.69921,-0.98047 0.91716,-3.53956 3.91986,-3.1434 6.34766,-3.47266 4.6721,-0.63424 9.39429,-0.89979 14.08399,-1.41797 0.37725,-0.0411 0.7367,-0.25071 1.10351,-0.38867 11.41139,-0.71803 4.26089,6.07461 4.2461,7.08399 -0.05,3.70284 0.61775,4.46948 4.38085,4.46679 6.37016,-0.005 12.74192,0.0276 19.11329,0.0547 -3.35108,0.49533 -6.70164,0.98773 -10.06641,1.36914 -7.99144,0.90412 -16.02977,1.39187 -24.0293,2.22852 -2.79464,0.29552 -5.5346,1.09535 -8.29687,1.66211 7.09586,0.72464 14.03363,0.61978 20.94336,0.11914 8.82093,-0.63693 17.61894,-1.60601 26.42773,-2.38868 0.67169,-0.0607 1.36983,0.26712 2.06445,0.33594 1.90446,0.19432 3.81625,0.50476 5.72071,0.48047 6.30278,-0.0796 12.46941,-0.83749 18.69531,-2.20312 2.10709,-0.46219 4.2737,-0.65023 6.41992,-0.9336 26.08716,0.53093 52.17543,1.02257 78.25781,1.75977 22.4259,0.63423 44.94559,-0.51027 67.24611,3.02929 0.6865,0.112 1.4028,0.0581 2.1055,0.0527 13.6307,-0.0526 27.2613,-0.0743 40.8906,-0.18359 5.886,-0.0472 11.792,-0.65217 17.6524,-0.3418 15.589,0.82181 31.1414,0.80071 46.6738,-0.86719 0.6933,-0.0742 1.3969,-0.0401 2.0996,-0.0293 7.1404,0.1039 14.2888,0.41453 21.4238,0.27149 10.3261,-0.20646 20.6401,-0.88863 30.9649,-1.09375 7.5207,-0.14978 15.0553,0.0782 22.5801,0.27929 2.2538,0.0594 4.4876,0.66136 6.7441,0.88672 2.2889,0.22805 4.5957,0.30093 6.8926,0.44532 0.057,0.35085 0.1099,0.70053 0.1679,1.05273 -2.003,0.95945 -4.0024,1.9202 -6.0039,2.87695 0.054,0.35355 0.1094,0.71091 0.166,1.06446 1.9894,0 3.9794,-0.0198 5.9688,0.002 5.3344,0.0648 10.7895,-2.1185 15.9863,0.94336 0.3149,0.18555 0.7452,0.1901 1.2051,0.13477 v 0 c 0.4599,-0.0553 0.9466,-0.16996 1.3789,-0.22461 6.6063,-0.84205 13.2034,-1.77799 19.8164,-2.53907 3.1156,-0.35625 6.2739,-0.6245 9.4004,-0.52734 5.7551,0.17678 11.5859,1.37311 17.2265,0.74023 3.6133,-0.40618 6.6447,1.16702 10.0274,0.91602 17.4773,-1.28871 34.9984,-2.07397 52.4218,-3.88086 16.923,-1.75561 33.7791,-4.26292 50.586,-6.9375 16.4631,-2.62195 32.8874,-5.58103 49.2129,-8.94922 11.9784,-2.47081 24.3444,-3.52447 35.6093,-9.00586 5.0956,-2.47891 10.4369,-4.45068 15.6661,-6.65429 -2.2174,-0.865 -4.2386,-0.67852 -6.2051,-0.91602 -2.1,-0.25369 -4.6055,0.18445 -6.0703,-2.36328 2.7866,-3.50852 6.781,-1.12471 9.8711,-2.39453 3.3692,-1.38317 6.757,-2.72202 10.2207,-4.11328 -0.8403,-2.31968 -1.5815,-4.36342 -2.3867,-6.58594 -1.0993,0.2321 -1.9215,0.50117 -2.7618,0.56055 -0.758,0.0526 -1.5294,-0.11914 -2.2968,-0.19336 -0.1565,-0.31442 -0.313,-0.63015 -0.4668,-0.94727 5.6419,-3.67585 13.1474,-5.28722 15.1328,-12.91016 -0.8875,-1.29411 -1.845,-2.69832 -2.7149,-3.96679 -3.8764,-0.90412 -5.3903,4.97756 -9.6308,2.94531 0.8362,-2.3723 1.6341,-4.64145 2.5351,-7.19727 -2.6058,-1.3211 -4.9632,-3.01956 -7.5879,-3.70507 -2.6827,-0.7044 -5.6267,-0.42067 -8.455,-0.56641 -0.086,-0.38998 -0.1734,-0.77798 -0.2598,-1.16797 4.1367,-2.28863 6.384,-7.03579 11.7305,-7.87109 3.6714,-0.57486 6.4218,-2.91798 8.8496,-6.25782 -5.6122,-0.69631 -10.7651,1.67021 -17.0274,-0.19336 3.763,-1.86357 6.4937,-2.6718 9.461,-2.5625 4.2877,0.15789 13.9841,-1.79585 19.5761,-4.18164 -2.7947,-1.35348 -4.9616,-3.07553 -7.33,-3.42773 -7.719,-1.14431 -15.523,-2.98114 -23.2325,0.32227 -0.6137,0.26314 -1.5544,-0.3152 -2.3515,-0.38672 -0.5854,-0.0553 -1.4616,-0.15966 -1.7422,0.16015 -2.5532,2.94447 -6.2321,1.94887 -9.3613,2.51563 -1.868,0.33736 -4.3963,-0.095 -6.584,-2.86133 6.1963,-1.51541 11.7465,-2.88252 17.3008,-4.22656 2.5545,-0.61669 5.1564,-1.06517 7.6503,-1.86133 0.6231,-0.20107 0.9106,-1.44936 1.4649,-2.41016 -2.2335,-0.56001 -3.9629,-0.99481 -6.4824,-1.625 0.3162,-0.24053 0.41,-0.31142 0.6836,-0.51953 H 932.96484 c 0.84645,-0.10777 1.69245,-0.21793 2.53907,-0.32422 z M 1266.791,17.58399 c 4.4797,0.0204 9.1472,0.83028 11.8731,2.38281 0.4194,3.21435 -1.1553,4.9189 -3.8164,4.41016 -6.2165,-1.18885 -12.3414,-2.88207 -18.8047,-4.44336 1.9746,-1.6011 6.2683,-2.37006 10.748,-2.34961 z m 54.3028,4.74804 c 7.537,0.15248 11.4468,0.93759 13.832,2.74414 -3.1453,1.1821 -5.73,2.19499 -9.0938,0.99805 -2.3442,-0.83395 -5.1753,-0.55359 -7.7636,-0.38086 -8.21,0.55326 -16.4096,1.30238 -24.6114,1.94336 -0.6798,0.0553 -1.3731,-0.10426 -2.1797,-0.17578 -0.6825,-1.41555 -1.3322,-2.77091 -2.3046,-4.79101 8.0872,-0.0972 15.6938,-0.12429 23.2968,-0.29297 3.3962,-0.0749 6.3119,-0.0957 8.8243,-0.0449 z M 20.681641,54.53907 c 3.060013,0.0423 6.12001,0.33362 9.179687,0.45507 -2.717764,2.02955 -12.843061,2.41728 -18.355469,0.58203 3.056979,-0.87241 6.115768,-1.07943 9.175782,-1.0371 z m 333.783199,47.31054 c -9.58662,0.0113 -17.9963,0.19078 -22.45312,0.5918 -2.67056,0.23885 -5.30597,0.88057 -7.95899,1.33398 0.79577,1.00398 1.46848,1.09731 2.13477,1.07032 7.7055,-0.31442 15.40643,-0.8282 23.11328,-0.9375 11.37819,-0.16058 22.76095,-0.0391 34.14453,-0.0391 3.30853,0 6.62717,-0.12509 9.93164,0.0273 3.95324,0.17948 7.89652,0.59454 11.84571,0.90625 0.0216,-0.37514 0.0448,-0.75242 0.0664,-1.12891 -2.9441,-1.05669 -29.73362,-1.84902 -50.82422,-1.82422 z m 295.91016,5.22852 c -9.25119,-0.0297 -18.50858,0.19592 -27.75977,0.49414 -11.72617,0.37649 -23.4502,0.9233 -35.17773,1.40234 -12.40055,0.50469 -24.78461,1.53189 -37.21484,1.10547 -4.00854,-0.13629 -8.02077,-0.27684 -12.0293,-0.25391 -3.87905,0.0243 -7.80391,-0.0691 -11.55078,1.64063 1.04934,0.68686 2.12563,1.2077 3.2168,1.24414 5.2575,0.17947 10.52254,0.37272 15.77734,0.28906 12.44237,-0.20377 24.88529,-0.90149 37.32226,-0.77734 21.02592,0.21051 42.04965,0.90603 63.07422,1.39453 11.88398,0.27528 23.76641,0.54066 35.65039,0.81055 6.64402,0.14979 13.26814,0.1325 19.87305,-2.47461 1.18961,3.28317 3.76349,3.54819 6.49609,3.00976 6.94884,-1.36832 13.63642,-3.97513 20.79297,-4.38672 0.12409,-0.007 0.23599,-0.24509 0.99805,-1.08984 -1.33259,-0.29013 -2.10788,-0.60067 -2.88477,-0.60742 -21.56273,-0.23075 -43.12551,-0.37443 -64.68554,-0.6875 -3.97212,-0.0567 -7.93172,-1.09978 -11.89844,-1.11328 z"
     sodipodi:nodetypes="cccccccccccccccccccccccccccccccccccccccccccccccccccccccccsccccccccccccccccccccsccccsccccccccsccccccccsccccccccsccccsccccccccccccsssccccccccccscccccccccccccccccsccsccccccccccccscccsscscccccssscssccccscccscccccccccccccscccccc" />
</svg>
