<?xml version="1.0" encoding="UTF-8" standalone="no"?>
<svg
   version="1.1"
   viewBox="0 0 1000.0098 232.00553"
   width="1000.0098"
   height="232.00552"
   xmlns="http://www.w3.org/2000/svg"
   xmlns:svg="http://www.w3.org/2000/svg">
  <path
     d="M 297.88085,0.03091092 C 297.42092,0.08623767 296.93228,0.200872 296.5,0.25552403 289.89374,1.0975702 283.29854,2.0335098 276.68554,2.79459 c -3.11565,0.3562503 -6.27395,0.624504 -9.40039,0.5273449 -5.75518,-0.1767757 -11.58798,-1.3731155 -17.22852,-0.7402314 -3.61334,0.4061793 -6.64269,-1.1670166 -10.02539,-0.9160221 -17.47731,1.2887084 -35.00046,2.0739704 -52.42382,3.8808611 -16.92297,1.7556122 -33.77896,4.262926 -50.58594,6.9375015 -16.46304,2.621949 -32.88547,5.581039 -49.21094,8.949224 -11.978394,2.470811 -24.344477,3.524462 -35.609373,9.005858 -5.095639,2.478909 -10.436848,4.450673 -15.666015,6.654297 2.217372,0.864986 4.236624,0.678508 6.203125,0.916008 2.100029,0.253694 4.605551,-0.18444 6.070311,2.363289 -2.786551,3.508526 -6.779115,1.124712 -9.869138,2.394528 -3.369219,1.383169 -6.757077,2.722009 -10.220709,4.113274 0.840282,2.319675 1.579554,4.363432 2.384768,6.585948 1.099244,-0.232102 1.921438,-0.501179 2.76172,-0.560554 0.758007,-0.05263 1.531376,0.119141 2.298824,0.19336 0.156457,0.314418 0.311093,0.630145 0.464852,0.947261 -5.641889,3.675856 -13.147437,5.287213 -15.132821,12.91016 0.887489,1.294106 1.844897,2.698326 2.714851,3.966793 3.876354,0.90412 5.392287,-4.977559 9.632808,-2.945313 -0.836235,2.372303 -1.636134,4.641442 -2.53711,7.197268 2.605816,1.321095 4.96319,3.019572 7.587889,3.705084 2.682696,0.704404 5.628672,0.420672 8.457035,0.566411 0.08632,0.389986 0.171495,0.777975 0.257816,1.167961 -4.136666,2.288638 -6.383967,7.035795 -11.730476,7.871094 -3.671342,0.574858 -6.419872,2.917973 -8.847651,6.257819 5.612216,0.696308 10.763074,-1.67022 17.025396,0.193347 -3.763058,1.863567 -6.493662,2.67181 -9.460948,2.562506 -4.287728,-0.157884 -13.984185,1.795838 -19.57617,4.181633 2.794644,1.35348 4.961653,3.07554 7.330087,3.42774 7.718989,1.14432 15.52287,2.98115 23.232418,-0.32226 0.613689,-0.26314 1.556396,0.3152 2.353516,0.38672 0.585365,0.0553 1.459689,0.15965 1.740233,-0.16016 2.553214,-2.94447 6.23219,-1.94887 9.361328,-2.51563 1.868041,-0.33736 4.39629,0.095 6.583989,2.86134 -6.196232,1.51541 -11.744612,2.88252 -17.298831,4.22656 -2.554564,0.61669 -5.158478,1.06516 -7.652347,1.86132 -0.62313,0.20107 -0.910498,1.44936 -1.464841,2.41016 2.233557,0.56001 3.964873,0.99481 6.484369,1.625 -1.777674,1.35213 -2.816737,2.14325 -3.841799,2.92187 0.148364,0.26449 0.192739,0.43604 0.304686,0.5332 1.444529,1.26847 4.657182,1.11254 3.953126,4.08399 -0.717543,3.04163 -3.634844,2.12721 -5.757802,2.39845 -1.737211,0.224 -3.515816,0.0774 -5.25977,0.26366 -1.101943,0.11875 -2.168156,0.54776 -3.253913,0.83789 12.0809,3.26698 24.21049,4.86545 36.675788,4.9707 -1.235469,1.3184 -2.488285,2.1653 -3.861329,2.70508 -6.336504,2.48565 -12.724369,1.00987 -19.070314,0.0234 -1.818137,-0.28338 -3.591603,-1.55323 -5.365231,0.42774 0.480161,0.40078 0.821372,0.92308 1.242187,1 10.158908,1.87571 20.327743,3.70518 30.496092,5.53906 1.193658,0.2159 2.624928,0.0637 3.548833,0.67773 4.633012,3.08346 9.886848,3.49876 15.130852,3.55274 5.242654,0.0526 10.494429,-0.37678 15.734379,-0.73438 10.14273,-0.69091 20.27869,-1.47599 30.41602,-2.23437 5.40046,-0.40349 10.79531,-0.88332 16.20116,-1.20313 0.81736,-0.0472 1.67865,0.59875 2.51759,0.91992 -0.0216,0.34411 -0.0448,0.6891 -0.0664,1.03321 -1.45667,0.19162 -2.92132,0.59438 -4.3672,0.53905 -8.78182,-0.3414 -17.3511,1.45349 -25.99804,2.44533 -4.20141,0.48309 -7.87905,1.88912 -10.37696,5.67968 8.18701,0.48714 16.12899,0.96221 24.21484,1.44531 -0.17129,3.2049 -1.7934,4.13779 -3.8125,4.29298 -3.30448,0.25774 -6.63138,0.35464 -9.9453,0.32225 -2.96999,-0.027 -5.95455,-0.60198 -8.9043,-0.4414 -9.79339,0.53573 -19.581431,1.23498 -29.361336,1.97852 -13.793833,1.0512 -27.583538,2.15611 -41.365232,3.34766 -2.394061,0.20916 -5.317768,0.2556 -6.990238,1.61718 -4.328191,3.51932 -9.272377,3.80099 -14.343738,4.1289 -6.990656,0.45071 -13.983497,0.8444 -20.9687576,1.38282 -1.0210161,0.0769 -1.9928561,0.81267 -3.2148384,1.3457 2.6044677,3.83913 5.75992,5.42102 9.8183578,5.66796 5.4287842,0.33062 10.8578112,1.39319 16.2636672,1.2461 7.786427,-0.21321 15.30143,1.54745 22.957027,2.19922 3.787336,0.32117 7.567766,0.81154 11.328126,1.37695 0.845677,0.1282 1.591693,0.88917 2.384768,1.35742 -0.04721,0.43992 -0.09342,0.87724 -0.140623,1.31446 -13.984009,0.25639 -27.846953,2.12531 -41.880866,2.13476 2.898499,2.62465 6.217179,0.52735 9.291017,1.04688 3.277502,0.55326 6.606473,0.89734 9.925787,1.09571 3.20332,0.19297 6.549353,-0.73882 9.91992,1.44727 -4.046299,2.88913 -8.727772,0.83337 -13.207025,2.68749 4.34033,2.32507 9.571331,-1.1428 13.435547,3.72461 -4.932439,0.41967 -9.091764,0.7701 -13.250011,1.12501 0.0094,0.40617 0.02242,0.81316 0.03321,1.22069 7.017631,0.68012 14.039146,1.33019 21.052731,2.05079 7.330545,0.75433 14.635099,1.77305 21.98048,2.32227 11.593995,0.86633 17.829882,1.94789 20.318357,3.89647 -5.152289,0.53033 -10.438657,1.07739 -15.728518,1.59962 -0.334494,0.0351 -0.684621,-0.15001 -1.031254,-0.17969 -8.377187,-0.7206 -16.75022,-1.48804 -25.132803,-2.10743 -1.895017,-0.13899 -3.827691,0.22773 -5.740241,0.36133 0.0054,0.36165 0.01214,0.72308 0.01757,1.08203 1.103291,0.3576 2.182236,0.87429 3.312503,1.04297 4.162292,0.61939 8.330398,1.23942 12.51562,1.65234 21.640955,2.14965 43.295953,4.1901 64.935563,6.36134 14.13507,1.41825 28.22676,3.31427 42.38476,4.41406 16.77326,1.3076 33.59011,2.12399 50.39843,2.89452 10.15082,0.46556 20.32655,0.47596 30.4922,0.62305 14.38459,0.21051 28.76789,0.48346 43.14843,0.47266 5.57985,-0.004 11.16295,-0.70977 16.74414,-1.09571 -0.61908,-1.1821 -1.23247,-1.46923 -1.85156,-1.49217 -11.57916,-0.40888 -23.15791,-0.77007 -34.73437,-1.18165 -1.74396,-0.0621 -3.52903,-0.11577 -5.21095,-0.52734 -1.91255,-0.46826 -2.87016,-1.79184 -2.20117,-4.42188 2.74204,-0.29688 5.48016,-0.83012 8.21681,-0.84766 11.75989,-0.0769 23.5233,0.0517 35.2832,0.006 26.31578,-0.0931 52.63343,-0.22823 78.94921,-0.38476 12.62041,-0.0742 25.23716,-0.25185 37.85352,-0.34766 18.96095,-0.14438 37.92381,-0.24307 56.88477,-0.38476 27.73468,-0.21051 55.47248,-0.26765 83.20311,-0.74804 10.63098,-0.18488 21.36998,1.61296 31.89845,-1.29102 0.66359,-0.18487 1.3969,-0.15863 2.09961,-0.14648 8.56601,0.16058 17.13124,0.45004 25.69726,0.48242 19.83361,0.0769 39.66774,-0.0268 59.5,0.0703 4.8704,0.0243 9.73899,0.56691 14.60938,0.8125 0.83893,0.0418 1.69324,-0.22269 2.54296,-0.31445 2.24705,-0.2429 4.49366,-0.63004 6.7461,-0.67187 6.31493,-0.11875 12.63848,0.10898 18.94531,-0.15821 32.96115,-1.40881 65.96595,-2.20565 98.79492,-5.75196 17.23724,-1.86222 34.61713,-1.02731 51.83008,-3.31055 6.03843,-0.80021 12.20557,-0.62305 18.30469,-0.99414 0.7607,-0.0445 1.48158,-0.7272 2.2207,-1.11718 -4.5858,-0.67742 -8.94423,-0.73434 -13.22656,-0.19726 -4.1097,0.51818 -8.13841,1.44949 -12.20898,-0.26564 5.5205,-1.97287 11.07868,-3.50435 16.66797,-4.91991 5.71742,-1.44929 11.89945,-0.88353 18.20898,-3.90626 -3.05361,-0.2159 -5.16458,-0.23508 -7.21875,-0.58593 -0.65685,-0.11201 -1.55365,-1.06471 -1.62109,-1.70704 -0.0634,-0.63018 0.66495,-1.79104 1.25976,-1.95702 2.1796,-0.60725 4.43492,-1.05529 6.6914,-1.27929 5.76193,-0.56677 11.54411,-0.91886 17.30469,-1.50586 1.67382,-0.17138 3.7348,-0.0663 4.79493,-2.66798 -5.34516,-0.0648 -10.32108,0.65881 -15.33984,-1.1211 1.10464,-1.54105 2.28264,-2.81934 3.72851,-3.31053 2.47094,-0.838 5.09261,-1.30416 7.68359,-1.70899 6.05731,-0.94595 12.12814,-1.8213 18.20703,-2.60937 4.01528,-0.51953 7.18861,-1.76669 6.61133,-6.7461 10.1697,-0.68956 19.92132,-1.35139 30.67773,-2.08008 -5.14015,-2.11726 -9.54797,-1.44144 -13.86132,-1.45898 -8.7481,-0.0378 -17.49349,0.0796 -26.24024,0.0566 -1.19635,-0.004 -2.39543,-0.45692 -3.59179,-0.70116 0.0351,-0.46826 0.0678,-0.93995 0.10156,-1.4082 6.87062,-0.66393 13.77559,-1.07202 20.59765,-2.06251 6.671,-0.97294 13.58404,-0.0355 20.10937,-2.45507 -2.07035,-0.71115 -4.12881,-1.14404 -6.18163,-1.1211 -13.31907,0.14844 -26.63661,0.5043 -39.95703,0.54883 -3.8224,0.0122 -7.64904,-0.74854 -11.46875,-1.2168 -2.77576,-0.33736 -5.53298,-1.08899 -8.30469,-1.11328 -10.17914,-0.0837 -20.36114,0.0846 -30.54297,0.10352 -3.86017,0.005 -7.71917,-0.14962 -11.58204,-0.20899 -2.34955,-0.0378 -3.64622,-0.95784 -3.12695,-3.88476 9.33481,-3.59354 19.49386,-1.27099 29.03907,-3.77149 -3.97886,-0.65987 -7.94018,-0.45575 -11.86914,-0.71484 -4.05979,-0.27123 -8.31127,1.10508 -12.59765,-1.16601 0.88479,-1.86087 1.6517,-3.47877 2.59179,-5.45704 -5.26019,0 -10.15551,0.0359 -15.04884,-0.0234 -1.18421,-0.0148 -2.46055,-0.13423 -3.50584,-0.61328 -0.59211,-0.27259 -1.04251,-1.3609 -1.09376,-2.11524 -0.0297,-0.43586 0.78057,-1.08799 1.34571,-1.36327 0.60289,-0.29013 1.36141,-0.26609 2.05468,-0.3457 15.13585,-1.75561 30.28761,-3.37991 45.39649,-5.35548 2.94571,-0.38729 6.46457,-0.44208 9.1621,-4.04101 -11.67492,1.05525 -22.57786,2.02798 -33.62695,1.60156 -0.35473,-3.69205 1.60886,-5.18884 4.08789,-5.70703 3.233,-0.67876 6.57639,-0.87632 9.88086,-1.1543 3.30988,-0.27933 6.65372,-0.22812 9.94336,-0.6289 10.43811,-1.27387 20.85263,-2.77276 31.29883,-3.99805 2.57479,-0.30227 5.23556,0.0964 7.85351,0.20703 2.27672,0.0945 4.57522,0.50621 6.82227,0.31055 7.33054,-0.63154 14.64598,-1.45149 21.95899,-2.27735 0.7081,-0.0796 1.35671,-0.68523 2.86328,-1.49219 -8.3664,0 -15.76191,-0.5125 -23.05469,0.14063 -7.73652,0.69226 -14.79525,-1.68469 -22.08398,-3.19335 -1.88693,-0.39134 -3.7624,-0.84582 -5.64258,-1.26954 -0.009,-0.41022 -0.0218,-0.82415 -0.0312,-1.23438 3.56479,-1.09304 7.06386,-2.63405 10.71093,-3.17382 5.11182,-0.75569 10.49143,1.10753 15.49805,-1.51172 0.63392,-0.33196 1.6933,0.18522 2.56055,0.25 5.63785,0.41832 11.17011,0.32852 16.375,-2.447267 1.33663,-0.711151 3.03229,-0.919207 4.58203,-1.013667 4.35786,-0.260441 8.72658,-0.334457 13.08984,-0.488292 5.21433,-0.183523 5.62433,-0.545306 7.14843,-6.156248 h -10.40819 c 0.96167,1.214489 1.55112,1.960874 2.46288,3.11329 -4.61278,1.303552 -8.70011,2.595243 -13.16992,1.921876 -1.71428,-0.257742 -3.48065,-0.176182 -5.22461,-0.220714 -6.26771,-0.157883 -12.55329,-0.111044 -18.80077,-0.564454 -2.25919,-0.164631 -4.43191,-1.524252 -7.33985,-2.595701 1.55512,-1.250925 2.36728,-1.901662 3.06055,-2.458978 -5.61626,-1.142969 -11.75056,1.047484 -17.2832,-2.142575 2.46285,-4.80668 3.17249,-5.455123 7.59374,-5.695322 3.23165,-0.178125 6.08935,-0.605315 8.51173,-3.207022 1.00213,-1.079546 3.14961,-1.403586 4.80859,-1.498046 7.00415,-0.406179 14.01976,-0.580688 21.02929,-0.878913 0.73778,-0.02969 1.46623,-0.293434 2.19727,-0.447269 -0.0135,-0.273935 -0.023,-0.550879 -0.0352,-0.826163 -0.58672,-0.112003 -1.17231,-0.29724 -1.76172,-0.324229 -10.16161,-0.468253 -20.32324,-0.967543 -30.49024,-1.335938 -2.14319,-0.07827 -3.87437,-0.446258 -5.83008,-1.662097 -3.79273,-2.360158 -7.42872,-5.167761 -12.53515,-4.914068 -4.13667,0.202415 -8.33756,-0.75135 -12.5039,-1.269533 -1.20715,-0.151136 -2.99023,-0.181498 -3.46095,-0.927735 -1.8006,-2.847303 -4.49645,-2.242541 -7.02539,-2.343749 -3.3301,-0.132244 -6.66538,-0.231319 -9.99414,-0.20703 -1.87344,0.01484 -3.16689,-0.298116 -4.28906,-2.173828 -1.4742,-2.469462 -3.91774,-3.77099 -7.04688,-3.673831 -2.26457,0.07152 -4.54164,-0.424289 -6.81836,-0.503905 -16.10022,-0.562714 -32.20055,-1.068185 -48.30078,-1.648441 -0.88883,-0.03239 -1.76243,-0.556641 -2.64452,-0.853516 -0.004,-0.376492 -0.0128,-0.755574 -0.0195,-1.134765 1.59289,-0.311719 3.17501,-0.835016 4.77734,-0.898439 4.38214,-0.176776 8.79029,0.08314 13.15624,-0.263666 11.49689,-0.912216 22.95316,-2.260367 34.53906,-1.816404 6.29739,0.240199 12.64709,0.107388 18.66798,-2.359375 1.10599,-0.45341 2.39278,-0.547344 3.60937,-0.62696 7.13902,-0.468254 14.28676,-0.849995 21.42578,-1.339839 2.17556,-0.148437 4.33328,-0.556317 6.49805,-0.843746 -0.008,-0.421023 -0.0167,-0.840697 -0.0234,-1.26172 -5.70124,-1.273865 -11.79053,0.731892 -17.5039,-1.386718 0.78768,-0.739489 1.60763,-1.178271 2.4668,-1.292972 1.38518,-0.178125 2.82314,0.0092 4.18944,-0.232427 2.01506,-0.353551 2.55508,-1.616323 1.45314,-3.867177 -3.26806,0 -6.73048,0.06924 -10.19142,-0.01174 -15.44202,-0.367045 -30.88173,-0.707561 -46.31836,-1.193357 -13.50519,-0.421023 -27.0101,-0.950041 -40.50585,-1.576178 -6.29469,-0.295526 -12.56665,-1.175559 -18.86134,-1.367178 -12.44641,-0.379191 -24.90784,-0.303596 -37.35156,-0.724619 -7.87814,-0.268537 -15.72927,-1.416864 -23.60741,-1.61523 -24.73098,-0.620739 -49.46751,-0.964238 -74.20118,-1.48242 -2.21737,-0.04723 -4.42008,-0.596908 -7.04883,-0.970701 0.73508,-1.947232 1.27253,-3.366444 1.75,-4.630862 4.67482,-0.681464 8.18517,-0.06538 11.67578,1.4082 1.11948,0.473651 2.83097,0.483462 3.89649,-0.04687 2.62875,-1.311649 7.55226,-2.700499 9.74805,-2.29297 5.33572,0.990484 10.65133,1.892188 15.43945,-1.863284 0.50714,-0.398082 1.31227,-0.515308 1.99609,-0.58008 4.8731,-0.448012 9.75042,-0.847444 14.62891,-1.26172 1.10194,-0.09446 2.20727,-0.194062 2.83984,-0.248039 -0.62448,-1.248226 -1.57538,-2.269922 -1.56055,-3.279298 0.0499,-3.702844 -0.6178,-4.469497 -4.38086,-4.466798 -9.46025,0.0067 -18.92586,0.11288 -28.38476,-0.08009 C 651.88749,10.231234 616.2614,9.5609704 580.64453,8.5542935 558.21859,7.92006 535.69894,9.0645545 513.39844,5.524992 512.71192,5.4129891 511.99567,5.466858 511.29296,5.472256 497.66233,5.524884 484.03163,5.546542 470.40234,5.6558463 464.51633,5.7030763 458.61039,6.3080138 452.75,5.9976442 437.16096,5.1758396 421.60856,5.1969312 406.07617,6.8648303 c -0.69326,0.074219 -1.3969,0.040092 -2.09961,0.029296 -7.14037,-0.1039064 -14.28886,-0.4145188 -21.42383,-0.271479 -10.32615,0.2064633 -20.64004,0.8886286 -30.96484,1.0937424 -7.52072,0.149787 -15.05531,-0.078227 -22.58008,-0.2792921 -2.25378,-0.059375 -4.48765,-0.6613571 -6.74414,-0.8867124 -2.28885,-0.2280542 -4.59564,-0.3009235 -6.89258,-0.4453128 -0.0566,-0.3508526 -0.10997,-0.7005311 -0.16797,-1.0527331 2.00292,-0.9594468 4.00233,-1.9202161 6.0039,-2.876964 -0.0539,-0.3535514 -0.10936,-0.7108947 -0.166,-1.0644462 -1.98943,0 -3.97932,0.019634 -5.96875,-0.00202 -5.33437,-0.064773 -10.78954,2.1185017 -15.98634,-0.94336156 -0.31493,-0.18554702 -0.74515,-0.19009461 -1.20508,-0.13476786 z M 770.71289,10.107086 c -1.22873,-0.01215 -2.46134,0.321421 -3.69141,0.494149 0.0216,0.354901 0.0454,0.707588 0.0684,1.062489 8.1452,0.584305 16.29306,1.16197 24.43556,1.759769 8.04674,0.589702 16.08369,1.477669 24.14257,1.724615 8.04404,0.248296 16.07554,0.180851 23.99415,2.615228 -2.76902,1.161862 -5.60068,2.038778 -8.41016,1.972655 -17.01199,-0.399432 -34.01954,-0.908843 -51.02343,-1.595704 -10.4961,-0.423722 -20.97927,-1.25728 -31.47267,-1.810548 -0.91716,-0.04723 -2.55895,0.439349 -2.69922,0.980471 -0.91716,3.539563 -3.91988,3.143396 -6.34766,3.472658 -4.67212,0.634233 -9.39432,0.899788 -14.08398,1.41797 -0.95357,0.103907 -1.85976,0.642371 -2.78906,0.982428 3.14128,1.002629 6.20123,1.226945 9.26562,1.271476 4.73282,0.06612 9.52003,-0.417001 14.18946,0.130868 4.86095,0.568112 9.28424,-1.496669 14.35156,-0.886726 7.32515,0.88118 14.95413,-0.72872 22.44923,-1.279289 0.35068,-0.02699 0.69363,-0.122663 1.04296,-0.152351 3.63627,-0.317117 7.28123,-0.935292 10.91211,-0.886712 10.67818,0.149787 21.352,0.505889 32.02344,0.894525 4.29851,0.159233 8.58396,0.610227 13.28711,0.957032 -0.64606,1.589632 -1.06575,2.624255 -1.76172,4.333987 2.40081,-0.257742 4.2503,-0.473476 6.10351,-0.6543 1.90176,-0.183523 4.10308,-1.032168 5.65821,-0.374994 4.83667,2.04709 9.67332,0.681599 14.48437,0.664056 4.87984,-0.02024 9.75688,-0.746479 14.63672,-0.79101 8.4136,-0.07692 16.83472,-0.05345 25.24023,0.263665 13.32986,0.507387 26.58723,-0.642397 39.86719,-1.296872 3.09676,-0.153835 6.23494,-0.0249 9.32226,0.294918 7.52747,0.779973 14.97494,0.611725 22.32032,-1.347651 0.89828,-0.240199 1.71122,-0.813357 2.71875,-1.308599 -0.58132,-0.538424 -0.79898,-0.918006 -1.03906,-0.935549 -20.27601,-1.439845 -40.55691,-2.816442 -60.82617,-4.31836 -2.04877,-0.153836 -4.46503,0.124053 -6.50976,-2.130849 4.31065,-1.114632 8.11202,-2.098301 11.91014,-3.082038 -0.0512,-0.400781 -0.10244,-0.800389 -0.15234,-1.20117 -1.68866,-0.186222 -3.37565,-0.496767 -5.06835,-0.533202 -7.52612,-0.161932 -15.05666,-0.446837 -22.58008,-0.310545 -9.97817,0.179475 -19.95091,0.704796 -29.92773,1.083986 -5.78351,0.219958 -11.5742,0.757626 -17.34962,0.595694 -11.54678,-0.318466 -23.077,-1.208417 -34.62109,-1.521486 -14.01907,-0.375142 -28.04449,-0.415693 -42.07031,-0.554684 z M 951.1289,69.444984 c -1.11606,0.02499 -2.21082,0.323702 -3.25585,1.275389 0.089,0.434518 0.18111,0.867011 0.27148,1.298829 2.49386,-0.225355 4.98721,-0.451641 7.48242,-0.679696 -0.0499,-0.481747 -0.10245,-0.962955 -0.15235,-1.443353 -1.44225,-0.06301 -2.91076,-0.483299 -4.3457,-0.451169 z m 36.47071,6.775381 c -1.23682,0.09581 -2.47412,0.189959 -3.71094,0.287119 0.0202,0.230753 0.0384,0.460048 0.0586,0.689452 h 3.75391 c -0.0337,-0.326563 -0.0665,-0.650008 -0.10156,-0.976571 z m -29.25977,7.45509 c -0.0121,0.255043 -0.0269,0.511786 -0.0391,0.769528 0.43565,0.163281 0.8942,0.501233 1.29883,0.447256 0.45723,-0.06207 0.87074,-0.473246 2.10351,-1.216784 z m -726.84961,5.01367 c 0.67978,-0.05533 1.37313,0.104257 2.17969,0.175777 0.68247,1.415555 1.33418,2.770912 2.30664,4.791013 -8.0872,0.09716 -15.69583,0.124296 -23.29883,0.292975 -13.58477,0.299574 -19.47586,-0.290479 -22.65625,-2.699216 3.14532,-1.182104 5.72992,-2.195001 9.09375,-0.998054 2.34415,0.833949 5.17734,0.553591 7.76563,0.380864 8.20994,-0.553268 16.40752,-1.302379 24.60937,-1.943359 z m 754.60742,3.031244 c -1.83567,0.08501 -3.66824,0.168895 -5.50391,0.25391 0.0324,0.492543 0.0665,0.987177 0.10157,1.482419 1.84107,-0.26044 3.68041,-0.521556 5.52148,-0.779297 -0.0405,-0.319816 -0.08,-0.638565 -0.11914,-0.957032 z M 250.0996,91.948882 c 6.21647,1.188851 12.3414,2.882065 18.80469,4.443359 -3.94919,3.202204 -17.16742,3.071849 -22.61913,-0.0332 -0.41947,-3.214349 1.15333,-4.918899 3.81444,-4.410163 z m 739.41016,64.433598 c -0.0243,0.30767 -0.0487,0.61421 -0.0703,0.92188 0.99539,0.0621 1.99409,0.12347 2.99218,0.18555 0.0229,-0.30902 0.0474,-0.61933 0.0703,-0.92969 -0.99943,-0.0594 -1.99544,-0.11836 -2.99218,-0.17774 z m -968.828128,14.1582 c 3.060013,0.0423 6.120013,0.33363 9.17969,0.45508 -2.717764,2.02955 -12.843061,2.41727 -18.355469,0.58204 3.056979,-0.87241 6.115765,-1.07945 9.175779,-1.03712 z m 900.984388,41.38477 c -4.3754,0.99453 -7.97547,2.09591 -11.65626,2.57226 -4.64785,0.59915 -9.36335,0.6505 -14.04492,1 -12.39651,0.92571 -24.78783,1.89898 -37.18164,2.83008 -6.11665,0.45881 -12.26113,0.66558 -18.35351,1.3457 -7.46273,0.8299 -14.86601,2.19298 -22.33008,3.03907 -7.99144,0.90412 -16.02977,1.39186 -24.0293,2.22851 -2.79464,0.29552 -5.53461,1.09535 -8.29688,1.66211 7.09586,0.72464 14.03363,0.61978 20.94336,0.11914 8.82093,-0.63693 17.61895,-1.606 26.42774,-2.38867 0.67169,-0.0607 1.36983,0.26712 2.06445,0.33594 1.90446,0.19432 3.81624,0.50475 5.7207,0.48046 6.30278,-0.0796 12.46941,-0.83749 18.69531,-2.20312 7.44384,-1.63281 15.19481,-1.86096 22.8086,-2.7246 4.34977,-0.48984 8.70757,-0.94869 13.03711,-1.57618 5.35595,-0.77592 10.67664,-1.7843 16.03124,-2.55078 3.49466,-0.50064 6.76923,-1.38739 10.16408,-4.16992 z m -567.20119,5.92578 c -9.58662,0.0113 -17.99629,0.19077 -22.45311,0.59179 -2.67056,0.23885 -5.30597,0.88059 -7.95899,1.334 0.79577,1.00398 1.46847,1.09729 2.13476,1.0703 7.7055,-0.31442 15.40643,-0.82819 23.11328,-0.93749 11.37819,-0.16058 22.76095,-0.0391 34.14453,-0.0391 3.30853,0 6.62717,-0.12514 9.93164,0.0273 3.95324,0.17948 7.89652,0.59454 11.84571,0.90625 0.0216,-0.37514 0.0448,-0.75241 0.0664,-1.1289 -2.9441,-1.05669 -29.73363,-1.84902 -50.82423,-1.82422 z m 60.90626,0.83399 c -1.66978,-0.0108 -3.34384,0.48821 -5.4668,0.82422 5.71203,2.92692 20.6067,2.68977 27.06055,-0.41797 -7.55175,-0.15654 -14.57342,-0.35767 -21.59375,-0.40625 z m 78.08593,0.81249 c -3.43903,-0.009 -6.43173,0.76002 -9.41992,1.58789 4.0436,-0.43451 8.32839,1.76215 13.02345,-1.29297 -1.26211,-0.20275 -2.45717,-0.29199 -3.60353,-0.29492 z m 25.4297,0.084 c -1.11678,0.0972 -2.23223,0.19386 -3.34766,0.29102 0.058,0.44801 0.11132,0.90025 0.16797,1.34961 1.11003,-0.23076 2.22395,-0.45946 3.33398,-0.68751 -0.0526,-0.31847 -0.10439,-0.63465 -0.15429,-0.95312 z m 131.48827,3.49804 c -9.25119,-0.0297 -18.50857,0.19593 -27.75976,0.49415 -11.72617,0.37649 -23.45021,0.9233 -35.17774,1.40234 -12.40055,0.50469 -24.7846,1.53189 -37.21483,1.10547 -4.00854,-0.13629 -8.02077,-0.27685 -12.0293,-0.25391 -3.87905,0.0243 -7.80392,-0.0691 -11.55079,1.64063 1.04934,0.68686 2.12565,1.2077 3.2168,1.24414 5.2575,0.17947 10.52255,0.37272 15.77735,0.28906 12.44237,-0.20377 24.88529,-0.90149 37.32226,-0.77734 21.02592,0.21051 42.04965,0.90603 63.07422,1.39453 11.88398,0.27528 23.76641,0.54066 35.65039,0.81055 6.64402,0.14979 13.26814,0.13249 19.87305,-2.47462 1.18961,3.28317 3.76349,3.54819 6.49609,3.00976 6.94884,-1.36832 13.63642,-3.97513 20.79297,-4.38671 0.12409,-0.007 0.23599,-0.24509 0.99805,-1.08984 -1.33259,-0.29013 -2.10788,-0.60067 -2.88477,-0.60742 -21.56273,-0.23075 -43.12552,-0.37444 -64.68555,-0.68751 -3.97212,-0.0567 -7.93172,-1.09978 -11.89844,-1.11328 z m 111.21876,2.66017 c -8.61053,1.46278 -17.65784,2.99189 -26.69727,4.55858 -0.2131,0.0364 -0.35884,0.4804 -1.2207,1.70703 11.2069,-0.27798 21.68149,-0.53614 32.53905,-0.80468 -1.71832,-2.03224 -2.89736,-3.42329 -4.62108,-5.46093 z m 37.83594,4.7285 c -2.91064,0.18353 -5.82375,0.36531 -8.73438,0.54883 0.027,0.14844 0.0543,0.29748 0.084,0.44727 h 8.72852 c -0.0243,-0.33196 -0.0511,-0.66414 -0.0781,-0.9961 z"
      />
</svg>
